<svg xmlns="http://www.w3.org/2000/svg" version="1.1" xmlns:xlink="http://www.w3.org/1999/xlink" xmlns:svgjs="http://svgjs.com/svgjs" width="256" height="256"><svg xmlns="http://www.w3.org/2000/svg" width="256" height="256" viewBox="0 0 100 100"><rect width="100" height="100" rx="20" fill="#5757c0"></rect><path d="M43.02 69.91L40.18 61.29L21.88 61.29L18.20 72.76Q17.53 73.06 16.78 73.21Q16.03 73.36 14.98 73.36L14.98 73.36Q13.10 73.36 11.90 72.54Q10.70 71.71 10.70 70.06L10.70 70.06Q10.70 69.24 10.93 68.45Q11.15 67.66 11.53 66.69L11.53 66.69Q12.50 63.54 14.26 58.55Q16.03 53.56 18.01 48.01Q20.00 42.46 22.03 37.10Q24.05 31.74 25.55 27.91L25.55 27.91Q26.30 27.46 27.88 27.05Q29.45 26.64 31.10 26.64L31.10 26.64Q33.28 26.64 35 27.24Q36.73 27.84 37.33 29.34L37.33 29.34Q38.98 33.61 40.92 39.05Q42.88 44.49 44.83 50.26Q46.77 56.04 48.58 61.59Q50.38 67.14 51.80 71.64L51.80 71.64Q51.13 72.39 50.04 72.88Q48.95 73.36 47.45 73.36L47.45 73.36Q45.42 73.36 44.52 72.58Q43.63 71.79 43.02 69.91L43.02 69.91ZM31.40 33.61L31.03 33.61Q30.28 35.64 29.38 38.19Q28.48 40.74 27.50 43.55Q26.53 46.36 25.55 49.25Q24.58 52.14 23.68 54.84L23.68 54.84L38.45 54.84Q37.48 51.84 36.46 48.80Q35.45 45.76 34.51 42.99Q33.58 40.21 32.75 37.77Q31.93 35.34 31.40 33.61L31.40 33.61ZM64.25 72.76L64.25 72.76Q62.30 72.76 61.10 71.56Q59.90 70.36 59.90 68.41L59.90 68.41L59.90 27.16Q60.50 27.01 61.51 26.83Q62.52 26.64 63.65 26.64L63.65 26.64Q65.83 26.64 66.91 27.46Q68 28.29 68 30.39L68 30.39L68 66.01L88.32 66.01Q88.70 66.54 89 67.36Q89.30 68.19 89.30 69.24L89.30 69.24Q89.30 70.96 88.47 71.86Q87.65 72.76 86.30 72.76L86.30 72.76L64.25 72.76Z" fill="#fff"></path></svg><style>@media (prefers-color-scheme: light) { :root { filter: none; } }
</style></svg>